<svg xmlns="http://www.w3.org/2000/svg" viewBox="0 0 439.68 201.09"><defs><style>.cls-1{fill:red;}.cls-2{fill:#fff;}.cls-3{fill:#fc0000;}.cls-4{fill:#f40604;}</style></defs><g id="background"><ellipse class="cls-1" cx="219.84" cy="100.55" rx="219.84" ry="100.55"/><ellipse class="cls-2" cx="218.98" cy="100.55" rx="210.67" ry="92"/><path d="M219,196.56c-56.81,0-110.28-9.69-150.57-27.29-41.33-18.05-64.1-42.45-64.1-68.72s22.77-50.67,64.1-68.72C108.7,14.24,162.17,4.55,219,4.55s110.28,9.69,150.56,27.28c41.34,18.05,64.11,42.46,64.11,68.72s-22.77,50.67-64.11,68.72C329.26,186.87,275.79,196.56,219,196.56Zm0-184c-55.73,0-108.07,9.45-147.36,26.61-38.25,16.7-59.31,38.5-59.31,61.39s21.06,44.69,59.31,61.39c39.29,17.16,91.63,26.62,147.36,26.62s108.07-9.46,147.36-26.62c38.24-16.7,59.31-38.5,59.31-61.39s-21.07-44.69-59.31-61.39C327.05,22,274.71,12.55,219,12.55Z"/><rect x="67.65" y="162.3" width="301.6" height="6"/><rect x="96.04" y="172.89" width="245.87" height="6"/><rect x="104.18" y="19.8" width="229.6" height="6"/><rect x="69.03" y="32.22" width="299.89" height="6"/></g><g id="letter_backing" data-name="letter backing"><path d="M106.62,129.94l-12.53,21H44.59l-7.1-4.8,9.38-17.41H58.59L85.76,81H74.09L86.51,59.05h52.41c12,0,25.41-.2,32.3,5,4.2,3.21,6.19,6.88,6.25,10.75,0,22.21-19.47,32-23.06,34.33s-14.81,6.5-19.44,7.37a96.71,96.71,0,0,1-17.39,1.3l-17.36.07-7.22,12Z"/><path d="M95.79,153.93H43.67l-10.11-6.84,11.52-21.37H56.85L80.6,84H68.94L84.76,56.05h55.47c12.46,0,25.37,0,32.81,5.66,6.05,4.61,7.38,9.66,7.43,13.09,0,22.06-17.51,32.68-23.27,36.17-.47.29-.86.52-1.14.71-4,2.61-15.62,6.88-20.54,7.81a100,100,0,0,1-17.94,1.35l-15.66.06-3.62,6,13.6,0Zm-50.28-6H92.39l9-15-13.64,0,10.82-18,19-.07a94.26,94.26,0,0,0,16.84-1.25c4.18-.78,15.1-4.78,18.34-6.92.33-.22.79-.49,1.34-.83,5.57-3.38,20.38-12.36,20.38-31-.05-3-1.75-5.83-5.07-8.36C163.57,62,151.17,62,140.23,62.05h-52L79.24,78H90.92L60.34,131.72H48.66l-7.24,13.44Z"/><path d="M145.34,128.64l11.83.08,26.48-48H172.22l11.93-21.67,59,0c9.55,0,18,1.26,23.38,5a14,14,0,0,1,6.56,12c0,12.17-15.13,23.82-29.5,26.81,8.25,2.75,12.31,6.44,11.81,14.13-.53,8.26-13.06,22-22.68,26.37-8.19,4.82-25.5,7.59-33.82,7.59H132.12Z"/><path d="M198.9,153.93H126.85l16.79-28.31,11.77.09,23.16-42H167.14l15.24-27.67,60.77,0c11.5,0,19.71,1.79,25.08,5.48A17,17,0,0,1,276.09,76c0,11.5-11.42,22.24-24.14,27.38,4,2.68,6.9,6.79,6.45,13.75-.63,9.67-14.07,24.12-24.3,28.85C225.3,151.11,207.74,153.93,198.9,153.93Zm-61.51-6H198.9c8.2,0,24.85-2.8,32.3-7.17l.28-.15c9.14-4.15,20.49-17.08,20.93-23.84.37-5.72-2.09-8.52-9.77-11.08l-10.54-3.51L243,99.91C255.8,97.23,270.09,86.77,270.09,76a11.1,11.1,0,0,0-5.26-9.52c-4.28-2.94-11.57-4.43-21.68-4.43l-57.22,0-8.64,15.67h11.45l-29.8,54-11.9-.08Z"/><path d="M290.59,129.84,298,130l-11.75,21H229.47l14.41-21,9-.21,40.59-26.85L282,80.47H270.72l12-21.42H339l-12.5,21.42h-7.38l5,11.75,19-11.58-7.62,0,12.45-21.61h55.84L392.09,81h-10.5l-37.5,24,10.56,24.54,12.07.06L355,150.93H297.09l12-20.38,8.59-.08-4.88-15.75Z"/><path d="M356.74,153.93h-64.9l15.57-26.36,6.25-.06-2.49-8L300.1,127l2.94,0L288,153.93h-64.2l18.51-27,9.68-.23,37.63-24.89-9.42-18.35H265.6L281,56.05h63.23l-16,27.42h-4.56l1.86,4.38,6.87-4.18h-2.09l15.92-27.62h62.56L393.89,84H382.47l-34.62,22.17,8.78,20.4,15.15.08Zm-54.39-6h50.84l8.46-15.36-9,0-12.34-28.68L380.71,78h9.58l8.47-15.92h-49.1l-9,15.59,13.15,0-31.13,19-8.14-19.12h10.19l9-15.42H284.47l-8.63,15.42h8l13.54,26.39-43.55,28.81-8.34.19-10.33,15.07h49.3l8.43-15.05-11.81-.2L314.51,110l7.26,23.47-10.92.11Z"/></g><g id="P"><path class="cls-3" d="M99.25,119,86.72,140H29.34l-1-1.49L39.5,117.8H51.22L78.38,70.05H66.72L79.13,48.14h52.42c12,0,25.41-.21,32.29,5,4.21,3.21,6.19,6.87,6.25,10.75,0,22.21-19.46,31.95-23.06,34.33s-14.81,6.49-19.44,7.36a96.52,96.52,0,0,1-17.39,1.31L92.84,107l-7.22,12Zm4.2-30.95,11.7,0c12.22-1.56,18.66-8.86,18.66-13.09,0-3.58-.69-5.12-5.81-5.12l-14.1,0Z"/><path d="M88.42,143H27.75l-2.93-4.31,12.89-23.9H49.47L73.22,73.05H61.57L77.38,45.14h55.48c12.48,0,25.36,0,32.8,5.65,6.05,4.61,7.38,9.67,7.43,13.09,0,22.06-17.51,32.68-23.27,36.17-.47.29-.86.52-1.14.71-4,2.61-15.62,6.89-20.54,7.81a99.82,99.82,0,0,1-17.94,1.36l-15.66,0-3.62,6,13.6,0Zm-55.87-6H85l9-15-13.65,0,10.82-18,19-.07A93.42,93.42,0,0,0,127,102.67c4.17-.78,15.09-4.77,18.34-6.92.33-.22.78-.49,1.33-.83,5.58-3.38,20.38-12.36,20.38-31,0-3-1.75-5.84-5.07-8.37-5.83-4.44-18.22-4.44-29.16-4.42h-52l-9,15.91H83.54L53,120.8H41.29ZM98.27,91.08l13.9-24.28,15.84,0c6.25,0,8.8,2.35,8.8,8.12,0,5.6-7.39,14.29-21.28,16.07l-.37,0Zm17.37-18.27-7,12.25H115c11-1.46,15.85-7.88,15.85-10.09a6.62,6.62,0,0,0-.15-1.8,6.8,6.8,0,0,0-2.66-.32Z"/></g><g id="B"><path class="cls-3" d="M138,117.72l11.83.08,26.48-48H164.84l11.94-21.66,59,0c9.54,0,18,1.25,23.37,4.95a14,14,0,0,1,6.57,12c0,12.17-15.14,23.81-29.5,26.81,8.25,2.75,12.31,6.44,11.81,14.12-.54,8.26-13.06,22-22.69,26.38-8.19,4.81-25.49,7.58-33.81,7.58H124.74ZM203.8,83.55l13.69-.14c7-.54,11.54-6.94,12-9.15.71-3.3-1.55-5-8.3-5l-9.62,0ZM184.15,118.7l13.69-.15c7-.54,14.66-7,15.56-12.06.6-3.32-3.44-5.24-10.19-5.24l-9.62,0Z"/><path d="M191.53,143h-72l16.78-28.3,11.77.08,23.17-42H159.76L175,45.13l60.77,0c11.5,0,19.7,1.79,25.07,5.47a17,17,0,0,1,7.87,14.48c0,11.49-11.43,22.24-24.14,27.37,4,2.69,6.89,6.8,6.44,13.76-.63,9.66-14.07,24.12-24.3,28.84C217.92,140.19,200.36,143,191.53,143ZM130,137h61.52c8.19,0,24.84-2.79,32.29-7.17l.28-.14c9.15-4.16,20.49-17.08,20.93-23.84.38-5.73-2.09-8.53-9.76-11.09l-10.54-3.51L235.6,89c12.83-2.68,27.12-13.14,27.12-23.87a11.1,11.1,0,0,0-5.26-9.53c-4.28-2.94-11.58-4.42-21.68-4.42l-57.23,0L169.92,66.8h11.44l-29.8,54-11.89-.09Zm49.08-15.26L191.8,98.28l11.41,0C209,98.25,213,99.5,215,102a6.08,6.08,0,0,1,1.33,5.06c-1.21,6.71-10.27,13.9-18.29,14.52h-.2Zm16.29-17.48-6.16,11.37,8.48-.09c5.57-.48,12.1-6,12.75-9.59a1.09,1.09,0,0,0,0-.12c-.14-.3-1.91-1.59-7.25-1.59Zm3.34-17.66,11.09-20.37,11.4,0c5.25,0,8.37,1,10.12,3.13a6.33,6.33,0,0,1,1.11,5.55c-.8,3.67-6.56,10.87-14.72,11.5h-.2Zm14.65-14.37-4.49,8.26,8.47-.09c5.57-.49,9-5.75,9.23-6.79a1.27,1.27,0,0,0,0-.56h0s-.93-.84-5.4-.84Z"/></g><g id="X"><path class="cls-4" d="M283.22,118.93l7.37.12-11.75,21H222.09l14.42-21,9-.21L286.1,91.92,274.63,69.55H263.34l12-21.41h56.25l-12.5,21.41h-7.37l5,11.75,19-11.58-7.62,0,12.46-21.6h52.71l2.33,1.48L384.71,70.05h-10.5l-37.5,24,10.57,24.55,12.06.06L347.59,140H289.72l12-20.37,8.59-.09-4.87-15.75Z"/><path d="M349.36,143h-64.9L300,116.65l6.25-.06-2.48-8-11.07,7.53,2.93,0L280.6,143H216.4l18.5-27,9.68-.23L282.21,90.9,272.8,72.55H258.22l15.36-27.41h63.23l-16,27.41h-4.56l1.87,4.38L325,72.75h-2.09l15.92-27.61h55.32l5.41,3.44-13,24.47H375.09L340.48,95.23l8.78,20.39,15.14.08ZM295,137h50.85l8.46-15.36-9,0L333,92.92l40.39-25.87h9.57l8.48-15.91H342.28l-9,15.59,13.16,0-31.14,19-8.13-19.12h10.19l9-15.41H277.1l-8.64,15.41h8L290,92.94l-43.55,28.81-8.34.2L227.78,137h49.3l8.44-15-11.82-.2L307.13,99l7.27,23.47-10.93.11Z"/></g><g id="Front_Lettering" data-name="Front Lettering"><path class="cls-1" d="M99.24,118.71,86.87,139.43H28.43L40.25,117.5H51.82L78.64,70.36H67.12L79.38,48.72h51.75c11.89,0,25.09-.2,31.89,5,4.15,3.16,6.11,6.79,6.17,10.61,0,21.93-19.22,31.55-22.77,33.89s-14.62,6.42-19.19,7.28a95.43,95.43,0,0,1-17.17,1.28l-17.14.07-7.13,11.84Zm4.15-30.57H115c12.06-1.54,18.42-8.75,18.42-12.93,0-3.53-.68-5-5.74-5l-13.92,0Z"/><path class="cls-1" d="M138,117.72l11.83.08,26.48-48H164.84l11.94-21.66,59,0c9.54,0,18,1.25,23.37,4.95a14,14,0,0,1,6.57,12c0,12.17-15.14,23.81-29.5,26.81,8.25,2.75,12.31,6.44,11.81,14.12-.54,8.26-13.06,22-22.69,26.38-8.19,4.81-25.49,7.58-33.81,7.58H124.74ZM203.8,83.55l13.69-.14c7-.54,11.54-6.94,12-9.15.71-3.3-1.55-5-8.3-5l-9.62,0ZM184.15,118.7l13.69-.15c7-.54,14.66-7,15.56-12.06.6-3.32-3.44-5.24-10.19-5.24l-9.62,0Z"/><path class="cls-1" d="M283.22,119.51l7.37.13-11.75,21H222.09l14.42-21,9-.21L286.1,92.51,274.63,70.14H263.34l12-21.42h56.25l-12.5,21.42h-7.37l5,11.75,19-11.59-7.62,0,12.46-21.6h55.83L384.71,70.64h-10.5l-37.5,24,10.57,24.54,12.06.06-11.75,21.33H289.72l12-20.37,8.59-.08-4.87-15.75Z"/></g></svg>